<svg xmlns="http://www.w3.org/2000/svg" viewBox="0 0 1200 800">
  <defs>
    <linearGradient id="heroGrad" x1="0" y1="0" x2="1" y2="1">
      <stop offset="0%" stop-color="#6d28d9" />
      <stop offset="100%" stop-color="#38bdf8" />
    </linearGradient>
    <filter id="softGlow" x="-20%" y="-20%" width="140%" height="140%">
      <feGaussianBlur stdDeviation="14" result="blur" />
      <feColorMatrix in="blur" type="matrix" values="1 0 0 0 0 0 1 0 0 0 0 0 1 0 0 0 0 0 0.4 0" result="glow" />
      <feMerge>
        <feMergeNode in="glow" />
        <feMergeNode in="SourceGraphic" />
      </feMerge>
    </filter>
  </defs>
  <rect width="1200" height="800" rx="40" fill="#f8fafc" />
  <rect x="80" y="120" width="1040" height="520" rx="40" fill="#ffffff" stroke="#e2e8f0" stroke-width="1" />
  <path d="M140 500 C280 380 420 420 560 520 C700 620 860 620 1020 500" fill="none" stroke="url(#heroGrad)" stroke-width="24" stroke-linecap="round" opacity="0.85" filter="url(#softGlow)" />
  <path d="M170 200 H460" fill="none" stroke="#fbbf24" stroke-width="6" stroke-linecap="round" opacity="0.95" />
  <circle cx="330" cy="280" r="72" fill="#eef2ff" stroke="#c7d2fe" stroke-width="2" />
  <circle cx="780" cy="220" r="46" fill="#f8fafc" stroke="#38bdf8" stroke-width="2" />
  <path d="M720 440 C760 400 840 390 900 430" fill="none" stroke="#94a3b8" stroke-width="12" stroke-linecap="round" opacity="0.45" />
  <g transform="translate(190,190)">
    <rect x="0" y="0" width="420" height="180" rx="28" fill="#f8fafc" stroke="#e2e8f0" stroke-width="1" />
    <text x="30" y="72" font-size="50" font-family="Georgia, serif" fill="#111827" font-weight="700">Zenovo</text>
    <text x="30" y="126" font-size="18" fill="#475569" font-family="Georgia, serif">Neat, elegant bookings for premium experiences.</text>
  </g>
  <g transform="translate(590,340)">
    <rect x="0" y="0" width="330" height="160" rx="26" fill="#f8fafc" stroke="#e2e8f0" stroke-width="1" />
    <text x="26" y="54" font-size="24" font-family="Inter, Arial, sans-serif" fill="#334155">Refined service flow</text>
    <text x="26" y="90" font-size="16" fill="#64748b" font-family="Inter, Arial, sans-serif">Clean design, simple booking, effortless discovery.</text>
  </g>
</svg>
